<svg xmlns="http://www.w3.org/2000/svg" xmlns:xlink="http://www.w3.org/1999/xlink" width="500" zoomAndPan="magnify" viewBox="0 0 375 374.999991" height="500" preserveAspectRatio="xMidYMid meet" version="1.0"><defs><g/></defs><g fill="#75c74e" fill-opacity="1"><g transform="translate(57.359, 212.605657)"><g><path d="M 15.65625 -47.78125 L 15.65625 -7.90625 L 37.125 -7.90625 L 37.125 0 L 6.203125 0 L 6.203125 -47.78125 Z M 15.65625 -47.78125 "/></g></g></g><g fill="#75c74e" fill-opacity="1"><g transform="translate(96.059787, 212.605657)"><g><path d="M 26.046875 0.6875 C 21.671875 0.6875 17.8125 -0.203125 14.46875 -1.984375 C 11.125 -3.773438 8.503906 -6.503906 6.609375 -10.171875 C 4.710938 -13.847656 3.765625 -18.421875 3.765625 -23.890625 C 3.765625 -29.359375 4.710938 -33.925781 6.609375 -37.59375 C 8.503906 -41.269531 11.125 -44 14.46875 -45.78125 C 17.8125 -47.570312 21.671875 -48.46875 26.046875 -48.46875 C 30.429688 -48.46875 34.289062 -47.578125 37.625 -45.796875 C 40.957031 -44.023438 43.566406 -41.296875 45.453125 -37.609375 C 47.335938 -33.929688 48.28125 -29.359375 48.28125 -23.890625 C 48.28125 -18.421875 47.335938 -13.84375 45.453125 -10.15625 C 43.566406 -6.476562 40.957031 -3.75 37.625 -1.96875 C 34.289062 -0.195312 30.429688 0.6875 26.046875 0.6875 Z M 26.046875 -7.515625 C 30.097656 -7.515625 33.191406 -8.816406 35.328125 -11.421875 C 37.460938 -14.023438 38.53125 -18.179688 38.53125 -23.890625 C 38.53125 -29.597656 37.460938 -33.757812 35.328125 -36.375 C 33.191406 -38.988281 30.097656 -40.296875 26.046875 -40.296875 C 21.972656 -40.296875 18.863281 -38.988281 16.71875 -36.375 C 14.570312 -33.757812 13.5 -29.597656 13.5 -23.890625 C 13.5 -18.179688 14.570312 -14.023438 16.71875 -11.421875 C 18.863281 -8.816406 21.972656 -7.515625 26.046875 -7.515625 Z M 26.046875 -7.515625 "/></g></g></g><g fill="#75c74e" fill-opacity="1"><g transform="translate(148.129351, 212.605657)"><g><path d="M 6.203125 0 L 6.203125 -47.78125 L 25.390625 -47.78125 C 30.335938 -47.78125 34.066406 -46.640625 36.578125 -44.359375 C 39.097656 -42.085938 40.359375 -38.945312 40.359375 -34.9375 C 40.359375 -32.039062 39.625 -29.664062 38.15625 -27.8125 C 36.6875 -25.957031 34.492188 -24.539062 31.578125 -23.5625 L 31.578125 -22.875 C 33.078125 -22.226562 34.289062 -21.257812 35.21875 -19.96875 C 36.144531 -18.6875 37.019531 -16.78125 37.84375 -14.25 L 42.625 0 L 32.90625 0 L 28.234375 -14.28125 C 27.753906 -15.71875 27.210938 -16.832031 26.609375 -17.625 C 26.015625 -18.425781 25.253906 -19.003906 24.328125 -19.359375 C 23.398438 -19.722656 22.195312 -19.90625 20.71875 -19.90625 L 15.65625 -19.90625 L 15.65625 0 Z M 24.25 -27.390625 C 28.820312 -27.390625 31.109375 -29.523438 31.109375 -33.796875 C 31.109375 -38.128906 28.820312 -40.296875 24.25 -40.296875 L 15.65625 -40.296875 L 15.65625 -27.390625 Z M 24.25 -27.390625 "/></g></g></g><g fill="#75c74e" fill-opacity="1"><g transform="translate(192.811773, 212.605657)"><g><path d="M 15.65625 -20.984375 L 15.65625 -7.90625 L 38.46875 -7.90625 L 38.46875 0 L 6.203125 0 L 6.203125 -47.78125 L 37.953125 -47.78125 L 37.953125 -39.875 L 15.65625 -39.875 L 15.65625 -28.703125 L 35.140625 -28.703125 L 35.140625 -20.984375 Z M 15.65625 -20.984375 "/></g></g></g></svg>